<svg t="1685082716399" class="icon" viewBox="0 0 1024 1024" version="1.1" xmlns="http://www.w3.org/2000/svg" p-id="1072" width="200" height="200"><path d="M832 0H192a192 192 0 0 0-192 192v640a192 192 0 0 0 192 192h640a192 192 0 0 0 192-192V192a192 192 0 0 0-192-192z m128 832a128 128 0 0 1-128 128H192a128 128 0 0 1-128-128V192a128 128 0 0 1 128-128h640a128 128 0 0 1 128 128v640z" fill="#......" p-id="1073"></path><path d="M652.8 503.04a32 32 0 1 0 0-64H576l103.04-128a32.128 32.128 0 1 0-50.56-39.68L521.6 401.92 417.28 270.08a32.128 32.128 0 1 0-50.56 39.68l103.04 128H371.2a32 32 0 1 0 0 64h118.4v82.56H371.2a32 32 0 1 0 0 64h118.4v85.76a32 32 0 0 0 64 0v-85.76h99.2a32 32 0 1 0 0-64H553.6V503.04h99.2z" fill="#....." p-id="1074"></path></svg>